<svg xmlns="http://www.w3.org/2000/svg" xmlns:xlink="http://www.w3.org/1999/xlink" width="500" zoomAndPan="magnify" viewBox="0 0 375 374.999991" height="500" preserveAspectRatio="xMidYMid meet" version="1.0"><path fill="#000000" d="M 262.121094 3.503906 C 262.121094 6.425781 260.769531 14.78125 263.039062 16.046875 C 264.421875 16.816406 267.90625 15.253906 269.21875 14.761719 C 273.207031 13.269531 270.859375 15.65625 272.523438 16.597656 C 273.117188 16.9375 272.328125 18.105469 274.113281 18.402344 C 275.335938 18.605469 276.972656 17.855469 278.089844 18.1875 C 283.582031 19.816406 280.164062 24.667969 287.144531 24.277344 C 291.417969 24.039062 290.855469 28.773438 293.878906 30.792969 C 296.144531 32.304688 299.605469 31.667969 300.671875 34.585938 C 300.925781 35.289062 296.667969 35.9375 299.78125 37.617188 C 301.53125 38.558594 303.300781 38.355469 304.707031 39.789062 C 306.8125 41.921875 302.652344 42.457031 307.21875 43.273438 C 309.316406 43.652344 311.921875 42.429688 314.164062 42.664062 C 314.929688 42.742188 313.074219 69.746094 312.90625 73.257812 C 310.949219 115.203125 310.621094 157.261719 310.125 199.242188 C 309.871094 220.425781 309.726562 241.605469 309.589844 262.789062 C 309.519531 274.308594 309.484375 285.824219 309.484375 297.34375 C 309.484375 301.878906 309.496094 306.410156 309.511719 310.945312 C 309.527344 314.730469 310.828125 321.984375 309.300781 325.535156 C 307.0625 330.722656 298.796875 330.460938 293.945312 331.347656 C 284.332031 333.105469 274.757812 335.109375 265.191406 337.097656 C 245.941406 341.101562 226.761719 345.5 207.421875 349.035156 C 187.25 352.726562 167.269531 357.570312 147.117188 361.332031 C 137.207031 363.179688 127.152344 364.144531 117.160156 365.453125 C 112.578125 366.058594 108.035156 366.882812 103.484375 367.691406 C 102.40625 367.882812 100.351562 371.105469 98.628906 371.792969 C 90.574219 374.996094 83.382812 369.429688 77.519531 365.03125 C 74.117188 362.480469 70.582031 359.703125 68.554688 355.886719 C 66.589844 352.183594 67.988281 345.738281 67.964844 341.46875 C 67.847656 319.941406 67.714844 298.417969 67.605469 276.890625 C 67.382812 232.378906 67.179688 187.871094 66.945312 143.359375 C 66.839844 123.824219 68.582031 103.148438 66.445312 83.71875 C 65.597656 76.042969 59.980469 63.898438 69.707031 59.929688 C 72.003906 58.992188 74.382812 57.800781 76.816406 57.289062 C 80.109375 56.59375 82.859375 58.507812 86.390625 58.144531 C 105.496094 56.164062 125.296875 46.53125 143.382812 40.464844 C 163.425781 33.742188 183.453125 26.980469 203.554688 20.441406 C 213.917969 17.070312 224.273438 13.703125 234.648438 10.378906 C 239.765625 8.738281 258.652344 0.0390625 262.121094 3.503906 " fill-opacity="1" fill-rule="nonzero"/><path fill="#ffffff" d="M 259.125 8.398438 C 222.800781 22 185.429688 33.773438 149.472656 47.984375 C 133.417969 54.332031 116.675781 59.0625 100.464844 65.117188 C 96.816406 66.480469 92.8125 68.492188 89.390625 68.300781 C 86.480469 68.136719 84.363281 66.550781 81.128906 67.199219 C 78.371094 67.75 77.675781 68.902344 79.660156 71.175781 C 81.273438 73.023438 81.859375 70.683594 82.414062 70.992188 L 82.414062 70.011719 C 84.597656 74.546875 89.179688 76.804688 93.855469 77.964844 C 87.253906 75.800781 76.910156 72.335938 75.019531 64.585938 C 73.457031 58.199219 80.589844 62.203125 82.035156 61.933594 C 100.007812 58.546875 116.066406 51.542969 133.28125 45.835938 C 153.128906 39.261719 172.9375 32.570312 192.832031 26.136719 C 211.390625 20.128906 230.558594 16 248.90625 9.558594 C 251.421875 8.679688 259.949219 3.464844 259.125 8.398438 " fill-opacity="1" fill-rule="nonzero"/><path fill="#ffffff" d="M 259.613281 16.902344 C 233.859375 27.484375 207.453125 36.039062 180.996094 44.664062 C 168.386719 48.773438 155.410156 51.667969 142.804688 55.941406 C 131.910156 59.636719 115.859375 68.363281 104.257812 67.015625 C 132.09375 57.210938 160.003906 47.632812 187.839844 37.828125 C 211.570312 29.472656 234.820312 18.402344 259.125 11.945312 C 258.820312 13.746094 258.398438 15.539062 259.613281 16.902344 " fill-opacity="1" fill-rule="nonzero"/><path fill="#ffffff" d="M 270.011719 17.882812 C 270.351562 18.917969 269.820312 19.472656 270.5625 20.390625 C 219.925781 36.402344 169.835938 54.539062 118.136719 67.015625 C 145.636719 57.808594 173.484375 49.796875 201.199219 41.277344 C 214.996094 37.039062 228.585938 32.246094 242.125 27.253906 C 251.117188 23.9375 260.570312 19.140625 270.003906 17.882812 " fill-opacity="1" fill-rule="nonzero"/><path fill="#ffffff" d="M 279.496094 22.835938 C 282.082031 28.308594 269.285156 29.140625 265.421875 30.058594 C 258.738281 31.644531 252.011719 33.085938 245.300781 34.539062 C 232.410156 37.335938 219.628906 40.410156 206.988281 44.191406 C 218.847656 40.417969 230.640625 36.453125 242.464844 32.574219 C 247.640625 30.878906 277.105469 18.925781 279.496094 22.835938 " fill-opacity="1" fill-rule="nonzero"/><path fill="#ffffff" d="M 291.378906 33.242188 C 292.214844 33.40625 293.050781 33.566406 293.886719 33.730469 C 234.089844 48.347656 172.980469 57.097656 113.199219 71.972656 C 146.875 61.347656 181.628906 54.589844 215.503906 45.027344 C 230.613281 40.761719 245.863281 37.839844 261.089844 34.035156 C 268.738281 32.121094 276.351562 30.046875 284.011719 28.199219 C 290.621094 26.601562 286.652344 31.304688 291.378906 33.242188 " fill-opacity="1" fill-rule="nonzero"/><path fill="#ffffff" d="M 296.324219 36.726562 C 296.378906 41.941406 238.5625 48.234375 230.851562 49.148438 C 241.988281 47.5 253.105469 45.644531 264.128906 43.359375 C 269.886719 42.164062 275.648438 40.988281 281.382812 39.679688 C 285.332031 38.773438 292.773438 35.691406 296.324219 36.726562 " fill-opacity="1" fill-rule="nonzero"/><path fill="#ffffff" d="M 300.792969 43.640625 C 271.199219 47.9375 242.25 55.175781 212.871094 60.632812 C 186.25 65.582031 158.984375 68.898438 132.035156 71.484375 C 160.144531 65.539062 188.273438 59.730469 216.578125 54.773438 C 244.761719 49.835938 273.238281 46.539062 301.34375 41.195312 C 301.304688 41.4375 300.800781 43.621094 300.792969 43.640625 " fill-opacity="1" fill-rule="nonzero"/><path fill="#ffffff" d="M 310.710938 45.660156 C 312.277344 131.820312 307.007812 218.179688 306.808594 304.359375 C 306.800781 307.996094 306.847656 311.609375 306.957031 315.242188 C 307.113281 320.355469 309.585938 325.71875 304.074219 326.75 C 293.257812 328.777344 282.445312 330.847656 271.644531 332.949219 C 253.164062 336.546875 234.738281 340.464844 216.296875 344.257812 C 178.734375 351.988281 140.90625 357.785156 103.28125 364.878906 C 102.375 278.949219 103.625 192.9375 104.140625 107.007812 C 104.148438 105.21875 103.523438 78.542969 104.511719 78.433594 C 115.144531 77.253906 125.773438 76.042969 136.394531 74.78125 C 154.757812 72.601562 173.089844 69.890625 191.335938 66.890625 C 230.875 60.394531 270.875 48.683594 310.710938 45.664062 " fill-opacity="1" fill-rule="nonzero"/><path fill="#ffffff" d="M 82.902344 77.417969 C 84.9375 77.539062 85.753906 78.8125 87.488281 79.4375 C 91.566406 80.90625 95.796875 80.765625 100.277344 80.964844 C 96.296875 88.640625 85.304688 82.339844 80.390625 79.4375 C 76.964844 77.414062 61.121094 65.757812 71.519531 62.058594 C 70.398438 69.144531 77.957031 74.164062 82.902344 77.417969 " fill-opacity="1" fill-rule="nonzero"/><path fill="#ffffff" d="M 93.792969 72.460938 C 93.238281 72.226562 92.757812 72.164062 92.386719 71.480469 C 95.019531 70.320312 97.648438 69.15625 100.277344 67.992188 C 101.609375 71.972656 96.457031 71.921875 93.792969 72.460938 " fill-opacity="1" fill-rule="nonzero"/><path fill="#ffffff" d="M 109.152344 72.460938 C 106.519531 72.808594 103.890625 73.15625 101.257812 73.503906 C 103.589844 71.925781 106.675781 72.578125 109.152344 72.460938 " fill-opacity="1" fill-rule="nonzero"/><path fill="#ffffff" d="M 96.300781 87.882812 C 97.472656 87.203125 99.007812 86.785156 100.277344 86.351562 C 99.773438 178.199219 99.269531 270.050781 98.765625 361.890625 C 98.742188 366.003906 100.460938 367.992188 95.445312 368.976562 C 88.03125 370.433594 81.476562 364.398438 76.199219 360.105469 C 68.074219 353.488281 70.894531 341.148438 70.816406 331.5 C 70.722656 320.070312 70.632812 308.644531 70.542969 297.214844 C 70.21875 256.183594 69.898438 215.148438 69.609375 174.117188 C 69.464844 153.992188 69.328125 133.871094 69.199219 113.75 C 69.117188 100.925781 70.445312 86.6875 68.03125 73.988281 C 75.445312 81.707031 85.109375 88.480469 96.300781 87.878906 " fill-opacity="1" fill-rule="nonzero"/><path fill="#ffffff" d="M 99.789062 76.929688 C 99.117188 77.4375 98.441406 77.949219 97.769531 78.457031 C 98.484375 76.191406 97.828125 77.28125 96.792969 74.972656 C 97.28125 74.644531 97.769531 74.316406 98.261719 73.992188 C 98.550781 75.195312 99.4375 75.96875 99.789062 76.929688 " fill-opacity="1" fill-rule="nonzero"/><path fill="#ffffff" d="M 212.929688 120.125 C 214.183594 120.863281 213.703125 126.636719 212.992188 129.058594 C 211.304688 125.21875 208.5 121.136719 203.996094 120.617188 C 208.453125 119.671875 209.78125 117.128906 209.992188 112.722656 C 210.921875 115.3125 208.960938 120.617188 212.929688 120.125 " fill-opacity="1" fill-rule="nonzero"/><path fill="#ffffff" d="M 199.519531 115.109375 C 198.664062 116.847656 199.550781 118.628906 200.558594 120.125 C 199.066406 119.503906 195.261719 117.636719 195.113281 115.84375 C 194.855469 112.703125 198.304688 113.726562 199.519531 115.109375 " fill-opacity="1" fill-rule="nonzero"/><path fill="#ffffff" d="M 277.480469 182.175781 C 277.820312 185.914062 274.46875 189.054688 274.96875 193.617188 C 273.859375 191.40625 271.261719 189.113281 268.605469 190.128906 C 264.636719 191.644531 265.609375 198.390625 265.609375 201.574219 C 264.332031 198.617188 260.136719 187.726562 262.605469 184.683594 C 264.191406 182.734375 274.949219 182.25 277.480469 182.175781 " fill-opacity="1" fill-rule="nonzero"/><path fill="#ffffff" d="M 287.875 199.550781 C 287.894531 200.058594 287.914062 200.570312 287.9375 201.078125 C 286.988281 198.679688 285.941406 196.359375 284.480469 194.226562 C 282.816406 191.796875 278.863281 191.453125 279.066406 189.578125 C 279.535156 185.199219 288.285156 195.613281 287.875 199.550781 " fill-opacity="1" fill-rule="nonzero"/><path fill="#ffffff" d="M 239.734375 208.488281 C 236.441406 209.429688 233.09375 210.929688 230.371094 208.03125 C 228.808594 206.367188 223.554688 206.84375 223.121094 205.980469 C 222.03125 203.808594 219.816406 196.265625 221.867188 194.109375 C 222.84375 193.082031 229.753906 192.738281 231.46875 192.273438 C 234.582031 191.425781 237.636719 190.417969 240.769531 189.640625 C 240.402344 195.9375 239.453125 202.164062 239.734375 208.488281 " fill-opacity="1" fill-rule="nonzero"/><path fill="#ffffff" d="M 276.496094 197.589844 C 278.769531 202.3125 280.152344 207.289062 280.964844 212.457031 C 278.996094 208.515625 275.214844 197.503906 269.09375 200.585938 C 269.257812 198.261719 269.417969 195.9375 269.585938 193.609375 C 272.660156 194.175781 272.992188 200.585938 276.496094 197.589844 " fill-opacity="1" fill-rule="nonzero"/><path fill="#ffffff" d="M 197.019531 198.570312 C 198.695312 205.632812 190.175781 209.117188 193.101562 215.945312 C 180.457031 219.015625 187.039062 230.222656 183.191406 238.28125 C 183.109375 235.820312 182.472656 233.445312 182.332031 231 C 182.171875 228.25 183.6875 225.707031 183.679688 223.410156 C 183.671875 220.28125 181.6875 216.265625 181.601562 212.703125 C 181.507812 208.914062 181.921875 205.25 180.742188 201.566406 C 186.121094 200.53125 191.835938 199.558594 197.019531 198.570312 " fill-opacity="1" fill-rule="nonzero"/><path fill="#ffffff" d="M 265.066406 205.980469 C 269.132812 204.152344 272.589844 215.660156 272.039062 219.441406 C 269.109375 217.222656 268.550781 213.445312 266.257812 210.753906 C 265.160156 209.464844 261.550781 209.171875 261.085938 208.488281 C 260.171875 207.140625 261.085938 202.304688 261.085938 200.59375 C 262.921875 202.105469 263.28125 204.796875 265.066406 205.980469 " fill-opacity="1" fill-rule="nonzero"/><path fill="#ffffff" d="M 259.125 211.964844 C 259.816406 217.511719 262.078125 222.734375 262.609375 228.300781 C 259.890625 227.015625 255.957031 219.089844 252.210938 222.425781 C 249.246094 225.066406 254.539062 234.785156 254.164062 238.277344 C 249.699219 233.25 248.199219 225.957031 247.742188 219.429688 C 255.925781 226.800781 253.742188 214.199219 253.675781 209.457031 C 254.675781 211.628906 256.835938 213.195312 259.125 211.964844 " fill-opacity="1" fill-rule="nonzero"/><path fill="#ffffff" d="M 229.113281 213.785156 C 225.640625 213.445312 218.855469 213.335938 221.585938 219.109375 C 223.296875 222.734375 223.921875 214.394531 228.132812 217.273438 C 227.199219 219.355469 225.644531 221.476562 223.449219 222.320312 C 218.101562 224.386719 219.199219 215.703125 219.199219 213.234375 C 220.847656 215.164062 225.304688 209.511719 229.113281 213.785156 " fill-opacity="1" fill-rule="nonzero"/><path fill="#ffffff" d="M 195.828125 218.183594 C 195.621094 219.050781 194.988281 219.964844 194.421875 220.695312 C 190.285156 216.195312 186.765625 227.789062 188.425781 231.09375 C 189.605469 233.449219 198.171875 239.203125 199.863281 237.582031 C 200.378906 238.109375 201.496094 239.433594 201.824219 240.089844 C 198.519531 239.925781 195.214844 239.765625 191.910156 239.601562 C 198.054688 239.117188 188.253906 234.816406 187.140625 232.683594 C 184.027344 226.738281 188.324219 216.421875 195.828125 218.183594 " fill-opacity="1" fill-rule="nonzero"/><path fill="#ffffff" d="M 178.449219 246.023438 C 176.136719 247.105469 173.753906 246.578125 171.382812 247.277344 C 168.136719 248.234375 168.683594 250.773438 171.996094 250.582031 C 173.066406 250.519531 178.957031 248.585938 179.023438 249.9375 C 179.324219 256.027344 180.949219 258.570312 175.636719 261.226562 C 173.414062 262.339844 169.824219 264.445312 167.804688 263.339844 C 165.402344 262.023438 166.546875 258.429688 165.417969 257.710938 C 158.464844 253.277344 163.457031 262.777344 164.132812 264.382812 C 162.15625 265.109375 160.1875 264.90625 158.199219 264.289062 C 156.386719 263.722656 155.367188 260.984375 155.078125 260.890625 C 151.210938 259.644531 149.492188 268.015625 144.246094 268.847656 C 145.296875 266.105469 146.625 263.21875 147 260.28125 C 147.394531 257.222656 145.207031 254.675781 145.289062 252.449219 C 145.382812 249.90625 149.171875 244.933594 151.160156 243.515625 C 150.671875 243.027344 150.183594 242.535156 149.691406 242.046875 C 151.082031 240.976562 152.519531 240.089844 154.160156 239.601562 C 152.523438 240.933594 152.34375 244.390625 154.832031 245.046875 C 156.347656 245.445312 156.550781 242.410156 158.472656 242.261719 C 160.042969 242.140625 160.636719 240.765625 161.929688 240.210938 C 164.636719 239.054688 171.382812 234.914062 170.128906 241.191406 C 169.421875 244.722656 165.648438 250.050781 161.625 249.023438 C 168.007812 248.425781 163.585938 243.292969 160.15625 245.535156 C 155.988281 248.257812 162.113281 250.722656 159.664062 253 C 158.183594 250.429688 151.585938 245.773438 153.667969 251.46875 C 153.875 252.035156 158.035156 255.984375 158.808594 256.242188 C 161.101562 257.007812 164.476562 253.9375 162.664062 251.957031 C 168.683594 252.15625 177.378906 240.839844 171.75 236.082031 C 168.480469 233.316406 164.8125 235.015625 161.683594 236.890625 C 153.691406 241.671875 158.59375 237.78125 158.683594 234.582031 C 164.410156 234.238281 166.308594 228.261719 170.921875 225.953125 C 173.164062 224.832031 175.695312 225.4375 178.023438 225.160156 C 178.183594 232.066406 178.652344 239.226562 178.449219 246.023438 " fill-opacity="1" fill-rule="nonzero"/><path fill="#ffffff" d="M 232.601562 235.558594 C 229.707031 239.28125 223.253906 238.511719 218.21875 239.105469 C 219.410156 238.484375 220.035156 236.441406 220.851562 236.046875 C 222.074219 235.457031 222.398438 236.234375 224.09375 235.863281 C 226.597656 235.316406 231.269531 233.902344 232.601562 235.558594 " fill-opacity="1" fill-rule="nonzero"/><path fill="#ffffff" d="M 278.460938 255.59375 C 273.617188 257.585938 268.292969 258.324219 263.101562 258.652344 C 263.453125 253.511719 261.355469 244.8125 267.078125 241.765625 C 270.582031 239.898438 275.253906 241.578125 278.949219 239.316406 C 279.453125 244.707031 278.179688 250.386719 278.460938 255.59375 " fill-opacity="1" fill-rule="nonzero"/><path fill="#ffffff" d="M 254.65625 260.0625 C 253.003906 260.246094 251.351562 260.429688 249.699219 260.613281 C 253.167969 256.800781 256.632812 252.984375 260.101562 249.171875 C 259.851562 252.90625 261.675781 262.753906 254.65625 260.0625 " fill-opacity="1" fill-rule="nonzero"/><path fill="#000000" d="M 155.347656 258.101562 C 153.1875 258.914062 145.964844 258.105469 150.390625 256.207031 C 152.046875 255.496094 155.253906 256.792969 155.347656 258.101562 " fill-opacity="1" fill-rule="nonzero"/><path fill="#ffffff" d="M 277.96875 275 C 272.945312 276.175781 267.734375 276.558594 262.609375 277.019531 C 262.609375 271.558594 259.738281 262.273438 266.066406 261.71875 C 270.066406 261.371094 274.671875 259.371094 278.460938 259.640625 C 278.296875 264.703125 278.128906 270.15625 277.96875 275 " fill-opacity="1" fill-rule="nonzero"/><path fill="#ffffff" d="M 160.796875 273.949219 C 159.746094 273.945312 158.898438 273.816406 158.957031 275.417969 C 159.074219 278.460938 165.476562 277.273438 166.65625 277.199219 C 171.429688 276.90625 170.332031 281.355469 171.289062 285.601562 C 172.074219 289.097656 173.425781 293.25 173.15625 296.15625 C 172.878906 299.152344 174.925781 299.039062 170.410156 300.21875 C 166.398438 301.265625 162.085938 301.296875 157.96875 301.296875 C 149.457031 301.296875 140.789062 299.746094 132.527344 297.808594 C 135.015625 292.019531 137.5 286.222656 139.988281 280.433594 C 144.445312 287.433594 153.339844 278.027344 145.988281 272.539062 C 149.074219 271.980469 149.988281 269.566406 152.414062 268.070312 C 156.355469 265.648438 155.632812 267.441406 159.386719 268.070312 C 166.355469 269.246094 175.144531 266.652344 180.742188 262.566406 C 175.566406 268.066406 169.53125 276.949219 160.796875 273.949219 " fill-opacity="1" fill-rule="nonzero"/><path fill="#ffffff" d="M 259.613281 277.4375 C 254.496094 278.4375 249.375 279.4375 244.253906 280.4375 C 244.253906 274.945312 242.007812 267.394531 247.070312 264.707031 C 250.613281 262.828125 255.777344 263.851562 259.613281 262.570312 L 259.613281 277.4375 " fill-opacity="1" fill-rule="nonzero"/><path fill="#ffffff" d="M 202.800781 269.339844 C 199.847656 274.859375 193.488281 276.890625 204.328125 277.78125 C 203.386719 281.675781 204.601562 286.019531 200.351562 288.246094 C 198.890625 289.011719 194.910156 288.984375 193.011719 289.589844 C 190.433594 290.414062 188.164062 291.46875 185.421875 291.734375 L 185.421875 281.066406 C 185.421875 276.59375 184.53125 274.101562 187.257812 272.214844 C 190.359375 270.066406 199.082031 268.878906 202.800781 269.339844 " fill-opacity="1" fill-rule="nonzero"/><path fill="#ffffff" d="M 226.871094 283.433594 C 226.726562 279.367188 237.515625 272.449219 240.757812 269.542969 C 240.757812 271.03125 241.378906 280.8125 240.4375 280.984375 C 235.914062 281.800781 231.394531 282.617188 226.871094 283.433594 " fill-opacity="1" fill-rule="nonzero"/><path fill="#ffffff" d="M 181.9375 296.140625 C 180.566406 294.984375 179.515625 296.128906 177.65625 296.875 C 174.847656 297.996094 174.960938 292.128906 174.472656 290.113281 C 173.355469 285.507812 173.871094 277.5625 172.023438 274.847656 C 175.109375 273.398438 178.679688 273.398438 182 272.828125 C 182 280.558594 182.265625 288.527344 181.9375 296.140625 " fill-opacity="1" fill-rule="nonzero"/><path fill="#ffffff" d="M 262.121094 297.332031 C 262.214844 294.144531 260.628906 282.621094 262.609375 280.445312 C 265.460938 277.3125 274.496094 280.808594 277.96875 277.507812 L 277.96875 295.113281 C 277.96875 295.933594 263.929688 297.109375 262.121094 297.332031 " fill-opacity="1" fill-rule="nonzero"/><path fill="#ffffff" d="M 259.125 297.824219 C 253.992188 298.859375 248.851562 299.871094 243.703125 300.820312 C 243.703125 296.324219 241.265625 284.4375 246.058594 283.472656 C 250.453125 282.589844 254.675781 281.074219 259.125 280.445312 L 259.125 297.824219 " fill-opacity="1" fill-rule="nonzero"/><path fill="#ffffff" d="M 240.210938 284.414062 C 240.210938 287.378906 242.039062 299.761719 240.210938 301.789062 C 238.996094 303.136719 228.09375 303.933594 225.828125 304.296875 C 225.695312 301.425781 224.734375 288.316406 226.378906 286.429688 C 227.917969 284.671875 237.566406 285.332031 240.210938 284.414062 " fill-opacity="1" fill-rule="nonzero"/><path fill="#ffffff" d="M 222.207031 304.097656 C 217.886719 304.984375 213.78125 306.675781 209.292969 306.117188 C 209.929688 299.625 212.25 286.707031 221.65625 286.71875 C 221.839844 292.515625 222.023438 298.304688 222.207031 304.097656 " fill-opacity="1" fill-rule="nonzero"/><path fill="#ffffff" d="M 197.359375 292.160156 C 194.734375 295.828125 192.054688 303.367188 188.425781 305.074219 C 190.207031 305.917969 189.4375 307.996094 188.914062 310.09375 C 187.308594 307.769531 184.078125 305.59375 187.445312 303.117188 C 184.941406 301.175781 186.402344 297.875 185.429688 295.160156 C 189.492188 294.625 193.429688 292.207031 197.359375 292.160156 " fill-opacity="1" fill-rule="nonzero"/><path fill="#ffffff" d="M 180.957031 303.609375 C 178.363281 304.140625 176.417969 303.398438 177.132812 300.765625 C 177.59375 299.078125 181.332031 299.238281 182.492188 297.613281 C 182.628906 299.761719 183.042969 302.433594 180.957031 303.609375 " fill-opacity="1" fill-rule="nonzero"/><path fill="#ffffff" d="M 277.96875 312.6875 C 272.683594 313.523438 267.40625 314.359375 262.121094 315.199219 L 262.121094 301.15625 C 262.121094 300.230469 269.261719 299.589844 270.382812 299.472656 C 271.316406 299.378906 277.96875 298.617188 277.96875 299.664062 L 277.96875 312.6875 " fill-opacity="1" fill-rule="nonzero"/><path fill="#ffffff" d="M 199.800781 300.121094 C 201.09375 304.078125 197.03125 311.046875 193.746094 309.664062 C 194.710938 307.246094 198.292969 300.339844 199.800781 300.121094 " fill-opacity="1" fill-rule="nonzero"/><path fill="#ffffff" d="M 259.125 315.6875 C 253.820312 316.683594 248.519531 317.6875 243.214844 318.683594 C 243.191406 316.894531 243.65625 315.582031 244.746094 314.707031 C 242.195312 312.839844 246.441406 309.570312 243.707031 309.261719 C 243.707031 303.269531 243.886719 304.117188 249.242188 303.265625 C 252.554688 302.738281 255.835938 301.960938 259.125 301.308594 C 259.125 306.101562 259.125 310.894531 259.125 315.6875 " fill-opacity="1" fill-rule="nonzero"/><path fill="#ffffff" d="M 148.714844 303.117188 C 149.347656 307.039062 142.808594 307.605469 140.148438 309.238281 C 134.128906 312.933594 131.691406 316.476562 132.316406 323.496094 C 128.855469 323.507812 125.292969 323.097656 121.914062 323.984375 L 121.914062 311.328125 C 121.914062 306.289062 121.210938 306.5625 125.707031 305.8125 C 128.082031 305.417969 137.175781 302.378906 136.871094 305.71875 C 136.546875 309.320312 140.269531 311.734375 140.269531 307.558594 C 140.269531 301.027344 141.480469 302.160156 148.714844 303.117188 " fill-opacity="1" fill-rule="nonzero"/><path fill="#ffffff" d="M 240.769531 318.476562 C 236 319.289062 231.226562 320.164062 226.390625 320.492188 L 226.390625 318.964844 C 227.417969 319.058594 227.636719 318.714844 228.347656 318.472656 C 225.84375 317.539062 224.46875 309.203125 226.390625 307.03125 C 227.828125 305.40625 237.496094 304.234375 240.21875 304.09375 C 240.414062 308.886719 239.847656 313.738281 240.769531 318.476562 " fill-opacity="1" fill-rule="nonzero"/><path fill="#ffffff" d="M 162.113281 314.984375 C 164.445312 315.277344 171.820312 317.722656 171.289062 313.699219 C 170.71875 309.367188 160.480469 311.925781 163.273438 307.214844 C 166.066406 302.515625 179.757812 306.386719 183.160156 309.171875 C 189.382812 314.269531 184.46875 318.136719 179.945312 322.050781 C 172.078125 328.867188 147.054688 332.300781 138.371094 325.691406 C 129.875 319.226562 140.785156 310.519531 147.734375 309.601562 C 148.132812 313.839844 146.980469 319.210938 153.730469 318.78125 C 160.523438 318.347656 159.550781 311.292969 152.199219 312.046875 C 153.6875 309.722656 155.175781 307.398438 156.667969 305.074219 C 160.3125 307.515625 157.253906 313.804688 162.113281 314.984375 " fill-opacity="1" fill-rule="nonzero"/><path fill="#ffffff" d="M 222.34375 321.472656 C 217.957031 321.574219 213.875 323.449219 209.496094 323.492188 C 209.480469 322.84375 210.253906 319.152344 210.226562 319.117188 C 209.167969 317.660156 209.148438 314.796875 209.496094 313.089844 C 210.214844 309.53125 209.875 310.167969 213.808594 309.417969 C 216.667969 308.871094 219.519531 308.292969 222.34375 307.582031 L 222.34375 321.472656 " fill-opacity="1" fill-rule="nonzero"/><path fill="#ffffff" d="M 185.914062 325.871094 C 184.816406 329.636719 169.710938 330.191406 165.601562 331.871094 L 165.601562 330.890625 C 170.441406 329.558594 175.238281 327.96875 179.703125 325.65625 C 183.65625 323.613281 183.800781 322.585938 185.914062 325.871094 " fill-opacity="1" fill-rule="nonzero"/><path fill="#ffffff" d="M 137.820312 329.359375 C 137.851562 331.03125 136.867188 336.394531 138.800781 337.375 C 142.347656 339.179688 141.285156 332.324219 141.308594 330.894531 C 147.886719 333.105469 155.496094 332.117188 162.171875 330.894531 C 157.597656 334.355469 151.648438 334.550781 146.265625 335.847656 C 137.980469 337.84375 129.84375 339.90625 121.425781 341.355469 C 121.609375 337.203125 121.5625 332.914062 123.015625 329.851562 C 123.765625 328.269531 123.65625 328.949219 123.441406 327.464844 C 128.242188 325.253906 133.941406 326.304688 137.820312 329.359375 " fill-opacity="1" fill-rule="nonzero"/><path fill="#ffffff" d="M 145.226562 252.453125 C 146.625 249.421875 147.902344 245.304688 150.914062 243.644531 C 150.507812 243.113281 150.097656 242.582031 149.691406 242.050781 C 151 240.640625 152.414062 239.722656 154.15625 239.605469 C 152.753906 240.644531 152.871094 242.679688 153.054688 244.011719 C 152.820312 243.804688 153.3125 243.820312 153.242188 243.703125 C 155.371094 246.417969 160.898438 239.523438 164.253906 238.257812 C 175.386719 234.0625 168.519531 250.738281 161.625 249.027344 C 167.808594 247.460938 162.867188 243.269531 159.847656 245.664062 C 156.757812 248.113281 160.621094 249.605469 160.398438 250.988281 C 160.007812 253.40625 160.0625 253.023438 157.585938 250.558594 C 155.542969 248.527344 151.519531 248.023438 153.667969 251.476562 C 156.242188 252.617188 157.890625 257.652344 161.132812 255.636719 C 161.261719 257.070312 160.839844 258.84375 161.320312 260.164062 C 161.734375 261.308594 164.015625 261.875 163.949219 263.285156 C 163.753906 267.421875 156.949219 263.535156 155.199219 262.613281 C 153.320312 261.621094 156.597656 258.894531 152.566406 261.082031 C 151.542969 261.640625 150.8125 264.253906 150.058594 265.183594 C 148.53125 267.074219 146.984375 268.929688 144.246094 268.855469 C 146.265625 263.671875 148.988281 257.445312 145.226562 252.453125 " fill-opacity="1" fill-rule="nonzero"/></svg>